<?xml version="1.0" encoding="UTF-8"?><svg id="Layer_1" xmlns="http://www.w3.org/2000/svg" width="146.42" height="29.3" viewBox="0 0 146.42 29.3"><path d="m36.2,19.79c.45,0,.74-.05.85-.14.11-.09.18-.19.21-.29.02-.1.04-.23.04-.39v-4.8c0-.2-.02-.34-.07-.4-.05-.06-.16-.1-.32-.1h-.88v-.94h1.27v-.78c0-1.21.29-2.18.87-2.89.58-.71,1.36-1.07,2.32-1.07.66,0,1.19.2,1.58.61.39.4.59.87.59,1.39s-.2.88-.59,1.05c-.13.06-.27.09-.41.09-.28,0-.52-.09-.72-.28-.21-.19-.31-.4-.31-.62,0-.44.19-.72.58-.85-.08-.18-.19-.32-.34-.41-.15-.09-.28-.13-.39-.13s-.23,0-.35.03c-.11.02-.23.06-.34.13-.54.32-.8,1.27-.8,2.84v.89h2.36v.94h-2.36v5.23c0,.4.09.64.27.74.18.1.64.15,1.38.15v.86h-4.45v-.86Z" fill="#414042"/><path d="m48.17,19.37c-.65.96-1.52,1.44-2.61,1.44-.79,0-1.4-.24-1.84-.73s-.66-1.21-.66-2.17v-3.24c0-.38-.03-.62-.1-.73-.07-.11-.24-.17-.53-.17h-.2v-.86c.48,0,.83-.04,1.04-.11.22-.08.37-.13.46-.16.09-.03.21-.05.34-.05.27,0,.44.08.53.25.09.16.13.43.13.79v4.36c0,.57.06.96.18,1.17.23.4.62.6,1.18.6.38,0,.74-.15,1.11-.45.36-.3.62-.64.77-1.04v-3.59c-.01-.39-.05-.63-.11-.74s-.24-.16-.52-.16h-.45v-.86c.49,0,.88-.04,1.14-.11.27-.08.46-.13.57-.16.11-.03.24-.05.38-.05.27,0,.44.08.54.23.09.16.14.41.14.77v5c0,.51.02.82.07.94.08.23.29.34.62.34.18,0,.33-.03.45-.09v.76c-.25.19-.59.28-1.02.28-.91,0-1.45-.48-1.64-1.44Z" fill="#414042"/><path d="m56.52,13.75c-.85,0-1.55.27-2.08.8v4.43c0,.32.05.53.16.61.18.14.53.21,1.03.21v.86h-3.97v-.86c.45,0,.73-.05.84-.14.11-.09.18-.19.21-.29.03-.1.04-.23.04-.39v-4.26c0-.38-.03-.62-.1-.73-.07-.11-.24-.17-.54-.17h-.48v-.86c.49,0,.87-.04,1.15-.11.28-.08.48-.13.59-.16.12-.03.24-.05.38-.05.28,0,.46.08.54.24.09.16.13.41.13.76.56-.47,1.2-.79,1.94-.95.24-.06.48-.09.72-.09,1.69,0,2.53,1.12,2.53,3.35v3.02c0,.34.05.57.15.68.1.11.37.16.81.16v.86h-3.7v-.86c.47,0,.76-.05.86-.14s.15-.2.17-.3c.02-.1.02-.23.02-.39v-2.92c0-.72-.07-1.22-.2-1.49-.27-.53-.67-.8-1.22-.8Z" fill="#414042"/><path d="m67.74,19.42c-.62.93-1.46,1.39-2.53,1.39s-1.92-.35-2.54-1.05c-.63-.7-.94-1.65-.94-2.84,0-1.46.32-2.55.96-3.27.64-.72,1.52-1.08,2.64-1.08.85,0,1.58.29,2.18.88v-2.88c0-.37-.04-.61-.11-.73-.08-.12-.26-.18-.55-.18h-.55v-.86c.52,0,.92-.04,1.21-.11.29-.08.5-.13.62-.16.12-.03.26-.05.4-.05.28,0,.46.08.54.24.09.16.13.41.13.76v9.1c0,.51.02.82.06.94.09.23.3.34.64.34.17,0,.32-.03.45-.09v.76c-.25.19-.59.28-1.02.28-.85,0-1.39-.46-1.59-1.39Zm-3.15.19c.25.18.55.27.91.27.69,0,1.2-.29,1.54-.86.34-.58.51-1.37.51-2.39,0-1.51-.4-2.48-1.2-2.91-.26-.14-.54-.2-.84-.2-.61,0-1.1.28-1.45.85-.35.57-.52,1.32-.52,2.26,0,1.51.35,2.5,1.05,2.98Z" fill="#414042"/><path d="m71.2,19.79c.48,0,.79-.05.91-.14.12-.09.2-.19.22-.29.03-.1.04-.23.04-.39v-4.3c0-.38-.03-.62-.1-.73-.07-.11-.24-.17-.53-.17h-.56v-.86c.51,0,.91-.04,1.2-.11.29-.08.5-.13.62-.16.12-.03.25-.05.39-.05.27,0,.45.08.54.24.09.16.13.41.13.76v5.4c0,.33.05.53.16.62.18.14.51.2,1.01.2v.86h-4.02v-.86Zm1.99-8.66c-.34,0-.63-.11-.86-.34-.24-.23-.36-.5-.36-.83s.12-.62.36-.85c.24-.23.53-.35.86-.35s.62.12.86.35c.24.23.36.51.36.85s-.12.61-.36.83c-.24.23-.52.34-.86.34Z" fill="#414042"/><path d="m81.28,13.75c-.85,0-1.55.27-2.08.8v4.43c0,.32.05.53.16.61.18.14.53.21,1.03.21v.86h-3.97v-.86c.45,0,.73-.05.84-.14.11-.09.18-.19.21-.29.03-.1.04-.23.04-.39v-4.26c0-.38-.03-.62-.1-.73-.07-.11-.24-.17-.54-.17h-.48v-.86c.49,0,.87-.04,1.15-.11.28-.08.48-.13.59-.16.12-.03.24-.05.38-.05.28,0,.46.08.54.24.09.16.13.41.13.76.56-.47,1.2-.79,1.94-.95.25-.06.48-.09.72-.09,1.69,0,2.53,1.12,2.53,3.35v3.02c0,.34.05.57.15.68.1.11.37.16.81.16v.86h-3.7v-.86c.47,0,.76-.05.86-.14.1-.1.15-.2.17-.3.02-.1.02-.23.02-.39v-2.92c0-.72-.07-1.22-.2-1.49-.27-.53-.67-.8-1.22-.8Z" fill="#414042"/><path d="m92.26,13.18c.46-.55,1.07-.82,1.8-.82.25,0,.47.09.66.28.19.19.29.41.29.69s-.08.49-.25.65c-.16.16-.36.24-.59.24s-.42-.06-.58-.2c-.16-.13-.25-.33-.26-.6-.19.07-.36.18-.52.33.31.45.47.96.47,1.54s-.09,1.03-.26,1.39c-.17.36-.41.66-.71.91-.3.25-.65.45-1.04.58-.4.14-.75.2-1.07.2s-.55,0-.71-.02c-.38.08-.63.24-.76.48-.04.06-.05.12-.05.2,0,.16.14.27.42.34.28.07.75.13,1.41.18s1.2.12,1.63.2c.43.08.8.19,1.11.36.66.35.99.94.99,1.78s-.41,1.51-1.23,2.01c-.82.5-1.82.75-3,.75-1.85,0-3.01-.47-3.48-1.41-.14-.29-.21-.6-.21-.95,0-.89.54-1.6,1.62-2.16-.37-.22-.55-.56-.55-1.02s.29-.82.87-1.08c-.49-.19-.88-.52-1.16-1-.28-.48-.42-.97-.42-1.47,0-.94.34-1.67,1.01-2.19s1.47-.79,2.38-.79,1.64.2,2.19.61Zm-3.48,7.43c-.52.28-.77.74-.77,1.41,0,.55.22.96.66,1.25.44.29,1.01.43,1.73.43,1.12,0,1.86-.3,2.21-.89.11-.18.17-.39.17-.62,0-.76-.65-1.19-1.94-1.31-.41-.04-.79-.08-1.14-.11s-.66-.08-.91-.16Zm1.23-3.14c.69,0,1.16-.36,1.43-1.09.09-.25.14-.56.14-.93,0-.69-.15-1.2-.45-1.52s-.67-.49-1.12-.49c-.72,0-1.22.37-1.49,1.1-.09.27-.14.58-.14.95,0,.67.16,1.17.49,1.5.33.33.71.5,1.14.5Z" fill="#414042"/><path d="m96.45,19.64c0-.33.12-.62.36-.85.24-.23.53-.35.86-.35s.62.12.86.35c.24.23.36.51.36.85s-.12.61-.36.83-.52.34-.86.34-.63-.11-.86-.34-.36-.5-.36-.83Z" fill="#414042"/><path d="m105.28,13.77c-.27-.27-.7-.4-1.3-.4s-1.01.22-1.23.66c-.06.12-.09.27-.09.43s.06.31.19.46.29.29.48.42.42.26.67.39.5.26.77.41c.27.15.55.3.84.46,1.09.59,1.63,1.25,1.63,1.97s-.28,1.28-.84,1.66c-.56.39-1.31.58-2.24.58s-1.7-.17-2.3-.5c-.6-.33-.91-.76-.91-1.29,0-.29.09-.53.29-.73.19-.2.43-.3.73-.3s.54.09.73.28c.19.19.29.41.29.66s-.09.47-.27.65c.42.24.93.36,1.55.36s1.05-.14,1.3-.43c.1-.11.16-.26.16-.45,0-.43-.48-.88-1.44-1.35-.67-.33-1.17-.59-1.5-.77-1.07-.6-1.6-1.33-1.6-2.19,0-.66.27-1.18.82-1.58.54-.4,1.24-.59,2.08-.59s1.55.16,2.13.47c.58.32.86.72.86,1.22,0,.29-.07.51-.21.65-.25.25-.48.37-.7.37-.36,0-.64-.09-.82-.28-.18-.18-.28-.4-.28-.64s.07-.44.21-.61Z" fill="#414042"/><path d="m108.61,16.65c0-.62.1-1.2.29-1.73.2-.53.47-.97.82-1.32.69-.69,1.6-1.03,2.74-1.03s2.08.35,2.79,1.04c.71.69,1.06,1.67,1.06,2.94s-.33,2.3-.98,3.08c-.65.79-1.61,1.18-2.87,1.18s-2.22-.38-2.87-1.14c-.65-.76-.98-1.77-.98-3.01Zm3.85,3.22c.6,0,1.09-.28,1.47-.83.38-.55.57-1.33.57-2.33,0-1.61-.41-2.61-1.22-3.02-.25-.12-.52-.19-.82-.19-.96,0-1.59.58-1.88,1.75-.1.4-.16.87-.16,1.41,0,1.03.19,1.82.57,2.38.38.55.87.83,1.47.83Z" fill="#414042"/><path d="m122.99,14.02c-.3-.36-.72-.55-1.27-.55-1.02,0-1.68.58-1.98,1.73-.1.41-.16.89-.16,1.46,0,1.06.2,1.85.61,2.39.41.54.91.8,1.52.8.45,0,.83-.13,1.14-.39.31-.26.53-.63.65-1.12h1.07c0,.65-.29,1.22-.86,1.71-.57.5-1.34.74-2.32.74s-1.81-.3-2.49-.91c-.8-.71-1.2-1.76-1.2-3.15,0-1.13.33-2.11,1-2.93.67-.83,1.65-1.24,2.95-1.24.85,0,1.56.21,2.12.62.57.41.85.94.85,1.59,0,.32-.1.58-.31.8-.21.22-.47.32-.79.32-.45,0-.77-.21-.94-.63-.05-.12-.08-.26-.08-.41,0-.36.15-.64.46-.84Z" fill="#414042"/><path d="m125.87,19.79c.48,0,.79-.05.91-.14.12-.09.2-.19.22-.29.03-.1.04-.23.04-.39v-4.3c0-.38-.03-.62-.1-.73-.07-.11-.24-.17-.53-.17h-.56v-.86c.51,0,.91-.04,1.2-.11.29-.08.5-.13.62-.16.12-.03.25-.05.39-.05.27,0,.45.08.54.24.09.16.13.41.13.76v5.4c0,.33.05.53.16.62.18.14.51.2,1.01.2v.86h-4.02v-.86Zm1.99-8.66c-.34,0-.63-.11-.86-.34s-.36-.5-.36-.83.12-.62.36-.85c.24-.23.53-.35.86-.35s.62.12.86.35c.24.23.36.51.36.85s-.12.61-.36.83-.52.34-.86.34Z" fill="#414042"/><path d="m137.93,18.79c0,.62.12.93.37.93s.41-.08.52-.24c.11-.16.16-.45.16-.86h.82c0,.07,0,.17,0,.32,0,.47-.12.88-.35,1.22-.29.44-.74.66-1.37.66-.41,0-.75-.11-1.04-.34s-.48-.53-.59-.91c-.75.83-1.71,1.25-2.87,1.25-.64,0-1.19-.19-1.66-.56-.47-.37-.71-.89-.71-1.56,0-1.16.85-2.01,2.56-2.56,1.08-.34,1.73-.58,1.95-.71s.35-.27.42-.41c.07-.14.1-.29.1-.46,0-.31-.15-.56-.45-.77-.3-.21-.7-.31-1.18-.31s-.91.13-1.28.39c.26.19.39.44.39.74s-.1.54-.3.73c-.2.18-.44.27-.73.27s-.52-.09-.7-.26-.28-.41-.28-.72c0-.61.31-1.1.92-1.48.61-.38,1.36-.57,2.24-.57,1.57,0,2.53.51,2.88,1.53.11.34.17.73.17,1.17v3.51Zm-4.48-1.18c-.23.31-.34.65-.34,1.01s.1.64.3.83.45.28.74.28c.6,0,1.1-.21,1.5-.64.4-.42.59-1.02.59-1.78v-1.2c-.33.17-.69.33-1.06.47s-.61.23-.7.27c-.46.2-.8.45-1.03.76Z" fill="#414042"/><path d="m140.17,19.79c.45,0,.76-.06.93-.19s.25-.34.25-.65v-8.46c0-.38-.03-.62-.1-.73-.07-.11-.24-.17-.54-.17h-.63v-.86c.53,0,.94-.04,1.23-.11.3-.08.51-.13.64-.16.13-.03.26-.05.4-.05.27,0,.45.08.54.23s.14.41.14.77v9.55c0,.32.07.54.21.66s.46.18.96.18v.86h-4.05v-.86Z" fill="#414042"/><path d="m17.87,19c-.29-.45.24-.98.69-.69l5.48,3.47,2.16-2.16v-3.06l-6.33-1.42c-.52-.12-.52-.86,0-.98l6.33-1.42v-3.06l-2.16-2.16-5.48,3.47c-.45.29-.98-.24-.69-.69l3.47-5.48-2.16-2.16h-3.06l-1.42,6.33c-.12.52-.86.52-.98,0l-1.42-6.33h-3.06l-2.16,2.16,3.47,5.48c.29.45-.24.98-.69.69l-5.48-3.47-2.16,2.16v3.06l6.33,1.42c.52.12.52.86,0,.98l-6.33,1.42v3.06l2.16,2.16,5.48-3.47c.45-.29.98.24.69.69l-3.47,5.48,2.16,2.16h3.06l1.42-6.33c.12-.52.86-.52.98,0l1.42,6.33h3.06l2.16-2.16-3.47-5.48Z" fill="#414042"/></svg>